<?xml version="1.0" encoding="UTF-8"?>
<svg width="129px" height="129px" viewBox="0 0 129 129" version="1.1" xmlns="http://www.w3.org/2000/svg" xmlns:xlink="http://www.w3.org/1999/xlink">
    <!-- Generator: Sketch 51.3 (57544) - http://www.bohemiancoding.com/sketch -->
    <title>E Icon 1c Black</title>
    <desc>Created with Sketch.</desc>
    <defs></defs>
    <g id="Final-Asset-Sheet" stroke="none" stroke-width="1" fill="none" fill-rule="evenodd">
        <g id="Ember-Logos" transform="translate(-3125.000000, -221.000000)" fill="#121212" fill-rule="nonzero">
            <g id="E-Icon-1c-Black" transform="translate(3125.058774, 221.928106)">
                <path d="M12.3076923,0 L115.692308,0 C122.489658,-1.24865308e-15 128,5.51034154 128,12.3076923 L128,115.692308 C128,122.489658 122.489658,128 115.692308,128 L12.3076923,128 C5.51034154,128 8.32435386e-16,122.489658 0,115.692308 L1.77635684e-15,12.3076923 C9.43921453e-16,5.51034154 5.51034154,6.5777236e-15 12.3076923,0 Z M64.8217758,85.6090904 C52.7829821,85.9124029 54.0504831,78.0040843 54.0504831,78.0040843 C54.0504831,78.0040843 98.00367,62.9617571 86.0191274,33.2494619 C80.633481,25.6050005 74.3748865,23.2031601 65.5171751,23.3782429 C56.6569978,23.5508598 45.7476117,28.9537678 38.6234668,44.9405559 C35.2253805,52.5702215 34.0713134,59.7979365 33.37838,65.2748232 C33.37838,65.2748232 25.5933591,66.8382388 21.4234288,63.3711057 C17.2559643,59.8990406 15.0637301,63.3711057 15.0637301,63.3711057 C15.0637301,63.3711057 7.88533426,71.7701494 15.011945,74.5542129 C22.1360898,77.3358104 33.2304226,77.8980482 33.2304226,77.8980482 L33.2254907,77.8980482 C34.2463962,85.2959141 36.7592046,92.4077291 45.893103,98.3482154 C61.2091513,108.313141 83.9378611,97.7884435 83.9378611,97.7884435 C97.5597981,92.0945528 106.607388,83.2812286 110.464142,78.9880005 C111.706984,77.5996676 111.665062,75.5060716 110.372902,74.1645919 L105.936648,69.5557215 C104.654351,68.2216397 102.568153,68.0983419 101.137899,69.2721367 C95.2122086,74.1251367 79.6372351,85.6090904 64.8217758,85.6090904 Z M51.9642849,64.5868216 C52.4870674,43.9122525 66.0374917,34.8769924 70.7302046,39.3995544 C75.4229175,43.9122525 73.6819531,53.6404461 64.8217758,59.7214919 C55.9640644,65.8050035 51.9642849,64.5868216 51.9642849,64.5868216 Z" id="Combined-Shape"></path>
            </g>
        </g>
    </g>
</svg>